#N canvas 523 78 783 611 12;
#X obj 133 21 vsl 19 162 0 127 0 0 empty empty empty 0 -9 0 12 #fcfcfc #000000 #000000 0 1;
#X obj 20 146 osc~ 300;
#X msg 128 195 \$1 20;
#X obj 346 22 vsl 19 162 0 127 0 0 empty empty empty 0 -9 0 12 #fcfcfc #000000 #000000 0 1;
#X obj 233 234 *~;
#X msg 341 196 \$1 20;
#X obj 563 29 vsl 19 162 0 127 0 0 empty empty empty 0 -9 0 12 #fcfcfc #000000 #000000 0 1;
#X obj 450 241 *~;
#X msg 558 203 \$1 20;
#X obj 233 147 osc~ 500;
#X obj 450 154 osc~ 1100;
#X obj 20 233 *~;
#X obj 317 334 *~;
#X obj 316 374 dac~;
#X obj 528 321 hsl 162 19 0 127 0 0 empty empty empty -2 -10 0 12 #fcfcfc #000000 #000000 0 1;
#X msg 446 365 \$1 20;
#X obj 457 399 line;
#X obj 139 229 line~;
#X obj 352 230 line~;
#X obj 569 237 line~;
#X connect 0 0 2 0;
#X connect 1 0 11 0;
#X connect 2 0 17 0;
#X connect 3 0 5 0;
#X connect 4 0 12 0;
#X connect 5 0 18 0;
#X connect 6 0 8 0;
#X connect 7 0 12 0;
#X connect 8 0 19 0;
#X connect 9 0 4 0;
#X connect 10 0 7 0;
#X connect 11 0 12 0;
#X connect 12 0 13 0;
#X connect 12 0 13 1;
#X connect 14 0 15 0;
#X connect 15 0 16 0;
#X connect 16 0 12 1;
#X connect 17 0 11 1;
#X connect 18 0 4 1;
#X connect 18 0 12 0;
#X connect 19 0 7 1;
